<svg width="21" height="16" viewBox="0 0 21 16" fill="none" xmlns="http://www.w3.org/2000/svg">
<path d="M17.7894 1.32631C16.4559 0.71242 15.0258 0.260131 13.5306 0.00108666C13.5034 -0.00391282 13.4762 0.00858115 13.4621 0.0335697C13.2782 0.361747 13.0745 0.789881 12.9318 1.12639C11.3237 0.884845 9.72372 0.884845 8.14851 1.12639C8.00582 0.782401 7.7947 0.361747 7.60996 0.0335697C7.59593 0.00941489 7.56873 -0.00307908 7.5415 0.00108666C6.04712 0.259303 4.61707 0.711592 3.28268 1.32631C3.27113 1.33131 3.26123 1.33965 3.25466 1.35047C0.542157 5.4161 -0.200911 9.3818 0.163613 13.2983C0.165263 13.3175 0.175984 13.3358 0.190829 13.3475C1.98046 14.666 3.71402 15.4665 5.41539 15.9971C5.44262 16.0054 5.47147 15.9954 5.4888 15.9729C5.89126 15.4215 6.25002 14.8401 6.55761 14.2287C6.57577 14.1929 6.55844 14.1504 6.52134 14.1363C5.95229 13.9197 5.41044 13.6557 4.88922 13.3558C4.84799 13.3317 4.84469 13.2725 4.88262 13.2442C4.9923 13.1617 5.10202 13.0759 5.20675 12.9893C5.2257 12.9735 5.2521 12.9701 5.27438 12.9801C8.69858 14.5486 12.4057 14.5486 15.7895 12.9801C15.8117 12.9693 15.8382 12.9726 15.8579 12.9885C15.9627 13.0751 16.0724 13.1617 16.1829 13.2442C16.2208 13.2725 16.2183 13.3317 16.1771 13.3558C15.6559 13.6615 15.114 13.9197 14.5442 14.1354C14.5071 14.1496 14.4906 14.1929 14.5087 14.2287C14.8229 14.8393 15.1817 15.4207 15.5767 15.9721C15.5932 15.9954 15.6229 16.0054 15.6501 15.9971C17.3597 15.4665 19.0933 14.666 20.8829 13.3475C20.8986 13.3358 20.9085 13.3183 20.9101 13.2992C21.3464 8.77122 20.1794 4.83804 17.8166 1.3513C17.8108 1.33965 17.801 1.33131 17.7894 1.32631ZM7.06896 10.9136C6.03804 10.9136 5.1886 9.96403 5.1886 8.79789C5.1886 7.63175 6.02157 6.6822 7.06896 6.6822C8.12458 6.6822 8.9658 7.64009 8.9493 8.79789C8.9493 9.96403 8.11633 10.9136 7.06896 10.9136ZM14.0213 10.9136C12.9904 10.9136 12.141 9.96403 12.141 8.79789C12.141 7.63175 12.9739 6.6822 14.0213 6.6822C15.0769 6.6822 15.9181 7.64009 15.9017 8.79789C15.9017 9.96403 15.0769 10.9136 14.0213 10.9136Z" fill="#FAFAFA"/>
</svg>
