<svg width="234" height="63.75" viewBox="0 0 234 63.75" fill="none" xmlns="http://www.w3.org/2000/svg">
    <path d="M233.325 0.45546C235.103 32.0153 230.648 63.6165 220.214 93.4546C209.78 123.293 193.571 150.784 172.512 174.358C151.454 197.931 125.958 217.127 97.4817 230.847C69.0048 244.568 38.1043 252.546 6.54449 254.324L0.0414886 138.938C16.4486 138.013 32.5129 133.866 47.3172 126.733C62.1215 119.6 75.3759 109.621 86.3236 97.3653C97.2713 85.1099 105.698 70.8182 111.122 55.3062C116.547 39.7941 118.863 23.3656 117.938 6.95848L233.325 0.45546Z" fill="url(#paint0_linear_366_2024)"/>
    <defs>
        <linearGradient id="paint0_linear_366_2024" x1="37.0001" y1="41.4286" x2="182.143" y2="187.714" gradientUnits="userSpaceOnUse">
            <stop stop-color="#16A34A"/>
            <stop offset="1" stop-color="#0B5225"/>
        </linearGradient>
    </defs>
</svg>
