<svg width="52" height="42" viewBox="0 0 52 42" fill="none" xmlns="http://www.w3.org/2000/svg">
<path fill-rule="evenodd" clip-rule="evenodd" d="M3.87224 18.1493C17.5024 12.1724 26.6135 8.3093 31.2055 6.4142C44.1796 1.02044 46.8765 0.0728886 48.6258 0C48.9903 0 49.8649 0.0728891 50.448 0.510221C50.8854 0.874663 51.0312 1.38488 51.104 1.74933C51.1769 2.11377 51.2498 2.91554 51.1769 3.57154C50.448 10.9333 47.4596 28.9368 45.8561 37.1732C45.2001 40.6718 43.8881 41.838 42.649 41.9838C39.9521 42.2025 37.8383 40.1616 35.2143 38.4852C31.1326 35.7883 28.8001 34.1119 24.7913 31.4879C20.1993 28.4265 23.1877 26.7501 25.8117 24.0532C26.4677 23.3243 38.4943 12.4639 38.713 11.4435C38.713 11.2977 38.7859 10.8604 38.4943 10.6417C38.2028 10.4231 37.8383 10.496 37.5468 10.5688C37.1094 10.6417 30.5495 15.015 17.794 23.6159C15.8989 24.9279 14.2224 25.511 12.6918 25.511C11.0153 25.511 7.80823 24.5634 5.4029 23.7617C2.48736 22.8141 0.154925 22.3039 0.373591 20.7004C0.519368 19.8986 1.68558 19.0239 3.87224 18.1493Z" fill="white"/>
</svg>
