<svg width="68" height="73" viewBox="0 0 68 73" fill="none" xmlns="http://www.w3.org/2000/svg">
<g filter="url(#filter0_b_137_5294)">
<path d="M2.25 40.9163C2.25 23.2894 16.6231 9 34.25 9C51.8769 9 66.25 23.2894 66.25 40.9163C66.25 58.5432 51.8769 72.8326 34.25 72.8326C16.6231 72.8326 2.25 58.5432 2.25 40.9163Z" fill="url(#paint0_radial_137_5294)"/>
<path d="M2.75 40.9163C2.75 23.5673 16.8975 9.5 34.25 9.5C51.6025 9.5 65.75 23.5673 65.75 40.9163C65.75 58.2654 51.6025 72.3326 34.25 72.3326C16.8975 72.3326 2.75 58.2654 2.75 40.9163Z" stroke="url(#paint1_radial_137_5294)"/>
<path d="M2.75 40.9163C2.75 23.5673 16.8975 9.5 34.25 9.5C51.6025 9.5 65.75 23.5673 65.75 40.9163C65.75 58.2654 51.6025 72.3326 34.25 72.3326C16.8975 72.3326 2.75 58.2654 2.75 40.9163Z" stroke="url(#paint2_radial_137_5294)"/>
<path d="M2.75 40.9163C2.75 23.5673 16.8975 9.5 34.25 9.5C51.6025 9.5 65.75 23.5673 65.75 40.9163C65.75 58.2654 51.6025 72.3326 34.25 72.3326C16.8975 72.3326 2.75 58.2654 2.75 40.9163Z" stroke="url(#paint3_radial_137_5294)"/>
</g>
<g filter="url(#filter1_f_137_5294)">
<ellipse cx="34.045" cy="26.1858" rx="20.3077" ry="13.0939" fill="url(#paint4_radial_137_5294)" fill-opacity="0.2"/>
</g>
<path d="M44.75 32.75C44.75 34.8211 40.049 36.5 34.25 36.5C28.451 36.5 23.75 34.8211 23.75 32.75M44.75 32.75C44.75 30.6789 40.049 29 34.25 29C28.451 29 23.75 30.6789 23.75 32.75M44.75 32.75V50.75C44.75 52.8211 40.049 54.5 34.25 54.5C28.451 54.5 23.75 52.8211 23.75 50.75V32.75M44.75 38.75C44.75 40.8211 40.049 42.5 34.25 42.5C28.451 42.5 23.75 40.8211 23.75 38.75M44.75 44.75C44.75 46.8211 40.049 48.5 34.25 48.5C28.451 48.5 23.75 46.8211 23.75 44.75" stroke="url(#paint5_linear_137_5294)" stroke-width="3"/>
<defs>
<filter id="filter0_b_137_5294" x="-2.75" y="4" width="74" height="73.8326" filterUnits="userSpaceOnUse" color-interpolation-filters="sRGB">
<feFlood flood-opacity="0" result="BackgroundImageFix"/>
<feGaussianBlur in="BackgroundImageFix" stdDeviation="2.5"/>
<feComposite in2="SourceAlpha" operator="in" result="effect1_backgroundBlur_137_5294"/>
<feBlend mode="normal" in="SourceGraphic" in2="effect1_backgroundBlur_137_5294" result="shape"/>
</filter>
<filter id="filter1_f_137_5294" x="0.78277" y="0.137354" width="66.5243" height="52.0968" filterUnits="userSpaceOnUse" color-interpolation-filters="sRGB">
<feFlood flood-opacity="0" result="BackgroundImageFix"/>
<feBlend mode="normal" in="SourceGraphic" in2="BackgroundImageFix" result="shape"/>
<feGaussianBlur stdDeviation="6.47727" result="effect1_foregroundBlur_137_5294"/>
</filter>
<radialGradient id="paint0_radial_137_5294" cx="0" cy="0" r="1" gradientUnits="userSpaceOnUse" gradientTransform="translate(7.60363 9) rotate(47.9449) scale(95.5445 69.4201)">
<stop stop-color="white" stop-opacity="0.36"/>
<stop offset="1" stop-color="white" stop-opacity="0"/>
</radialGradient>
<radialGradient id="paint1_radial_137_5294" cx="0" cy="0" r="1" gradientUnits="userSpaceOnUse" gradientTransform="translate(-31.8272 15.5302) rotate(35.0407) scale(73.7209 43.5106)">
<stop stop-color="white"/>
<stop offset="1" stop-color="white" stop-opacity="0.06"/>
</radialGradient>
<radialGradient id="paint2_radial_137_5294" cx="0" cy="0" r="1" gradientUnits="userSpaceOnUse" gradientTransform="translate(84.9868 51.7206) rotate(161.385) scale(53.4742 36.1427)">
<stop stop-color="#8470FF"/>
<stop offset="1" stop-color="#865CFF" stop-opacity="0"/>
</radialGradient>
<radialGradient id="paint3_radial_137_5294" cx="0" cy="0" r="1" gradientUnits="userSpaceOnUse" gradientTransform="translate(34.9468 -5.58874) rotate(47.2149) scale(35.7144 25.6703)">
<stop/>
<stop offset="1" stop-color="white" stop-opacity="0"/>
</radialGradient>
<radialGradient id="paint4_radial_137_5294" cx="0" cy="0" r="1" gradientUnits="userSpaceOnUse" gradientTransform="translate(34.045 13.0919) rotate(90) scale(19.4053 30.1)">
<stop stop-color="white"/>
<stop offset="1" stop-color="white" stop-opacity="0"/>
</radialGradient>
<linearGradient id="paint5_linear_137_5294" x1="27.5781" y1="66.9844" x2="59.9669" y2="46.2144" gradientUnits="userSpaceOnUse">
<stop stop-color="#982DEC"/>
<stop offset="0.572917" stop-color="#DC8DF8"/>
<stop offset="0.895833" stop-color="#A9C4F3"/>
</linearGradient>
</defs>
</svg>
