<svg width="88" height="16" viewBox="0 0 88 16" fill="none" xmlns="http://www.w3.org/2000/svg">
<g clip-path="url(#clip0_137_5337)">
<path d="M6.63778 15.9234C5.36635 15.9234 4.13828 15.7789 2.95355 15.49C1.76881 15.2011 0.793574 14.8254 0.027832 14.3631L1.6749 10.6355C2.3973 11.0545 3.19916 11.394 4.08049 11.6541C4.97626 11.8997 5.84314 12.0225 6.68112 12.0225C7.17236 12.0225 7.55522 11.9936 7.82974 11.9358C8.11869 11.8636 8.32819 11.7696 8.45822 11.6541C8.58825 11.524 8.65327 11.3723 8.65327 11.199C8.65327 10.9244 8.50157 10.7077 8.19816 10.5488C7.89475 10.3899 7.49021 10.2599 6.98453 10.1587C6.4933 10.0431 5.9515 9.92751 5.35913 9.81195C4.76677 9.68192 4.16718 9.51574 3.56036 9.3135C2.968 9.11125 2.41897 8.84391 1.91329 8.51163C1.42206 8.17933 1.02474 7.74589 0.721335 7.21132C0.417927 6.6623 0.266224 5.98324 0.266224 5.17415C0.266224 4.23504 0.526287 3.3826 1.04641 2.61686C1.58099 1.83667 2.3684 1.21541 3.40866 0.753073C4.46336 0.290738 5.7709 0.0595703 7.33128 0.0595703C8.35708 0.0595703 9.36845 0.16793 10.3654 0.384649C11.3623 0.601369 12.258 0.93367 13.0527 1.38156L11.514 5.08747C10.7626 4.71182 10.0331 4.43009 9.3251 4.24226C8.6316 4.05443 7.95255 3.96052 7.28794 3.96052C6.7967 3.96052 6.40661 4.00387 6.11765 4.09056C5.8287 4.17724 5.6192 4.29282 5.48916 4.43731C5.37358 4.58179 5.31579 4.74071 5.31579 4.91409C5.31579 5.17415 5.46749 5.38365 5.7709 5.54258C6.07431 5.68706 6.47162 5.80986 6.96286 5.911C7.46853 6.01214 8.01756 6.1205 8.60993 6.23608C9.21674 6.35166 9.81636 6.51059 10.4087 6.71286C11.001 6.91513 11.5428 7.18242 12.0341 7.51472C12.5397 7.84702 12.9443 8.28046 13.2477 8.81504C13.5511 9.34965 13.7028 10.0142 13.7028 10.8089C13.7028 11.7336 13.4356 12.586 12.901 13.3662C12.3808 14.1319 11.6007 14.7532 10.5604 15.2299C9.52015 15.6922 8.21261 15.9234 6.63778 15.9234ZM15.8749 15.5767V0.406321H20.0793L26.1474 10.3104H23.9369L29.8317 0.406321H34.036L34.0794 15.5767H29.4199L29.3766 7.42804H30.1134L26.0824 14.2114H23.8286L19.6242 7.42804H20.5344V15.5767H15.8749ZM45.1776 15.9234C43.9351 15.9234 42.7865 15.7284 41.7318 15.3383C40.6915 14.9482 39.7885 14.3992 39.0228 13.6912C38.2571 12.9689 37.6575 12.1237 37.224 11.1556C36.8051 10.1876 36.5955 9.13293 36.5955 7.99151C36.5955 6.83567 36.8051 5.78097 37.224 4.8274C37.6575 3.85938 38.2571 3.02141 39.0228 2.31345C39.7885 1.59106 40.6915 1.03481 41.7318 0.644714C42.7865 0.254618 43.9279 0.0595703 45.156 0.0595703C46.3985 0.0595703 47.5399 0.254618 48.5801 0.644714C49.6204 1.03481 50.5234 1.59106 51.2891 2.31345C52.0548 3.02141 52.6473 3.85938 53.0662 4.8274C53.4997 5.78097 53.7164 6.83567 53.7164 7.99151C53.7164 9.13293 53.4997 10.1876 53.0662 11.1556C52.6473 12.1237 52.0548 12.9689 51.2891 13.6912C50.5234 14.3992 49.6204 14.9482 48.5801 15.3383C47.5399 15.7284 46.4057 15.9234 45.1776 15.9234ZM45.156 11.7841C45.6327 11.7841 46.0734 11.6974 46.4779 11.524C46.8969 11.3507 47.2581 11.1051 47.5615 10.7872C47.8794 10.4549 48.125 10.0575 48.2984 9.59523C48.4718 9.11845 48.5585 8.58385 48.5585 7.99151C48.5585 7.39914 48.4718 6.87179 48.2984 6.40945C48.125 5.93267 47.8794 5.53536 47.5615 5.2175C47.2581 4.8852 46.8969 4.63235 46.4779 4.45898C46.0734 4.2856 45.6327 4.19892 45.156 4.19892C44.6792 4.19892 44.2313 4.2856 43.8123 4.45898C43.4077 4.63235 43.0466 4.8852 42.7287 5.2175C42.4253 5.53536 42.1869 5.93267 42.0135 6.40945C41.8401 6.87179 41.7535 7.39914 41.7535 7.99151C41.7535 8.58385 41.8401 9.11845 42.0135 9.59523C42.1869 10.0575 42.4253 10.4549 42.7287 10.7872C43.0466 11.1051 43.4077 11.3507 43.8123 11.524C44.2313 11.6974 44.6792 11.7841 45.156 11.7841ZM56.2229 15.5767V0.406321H63.5263C64.9422 0.406321 66.1631 0.637488 67.1889 1.09982C68.2291 1.56216 69.031 2.22677 69.5945 3.09364C70.1579 3.94607 70.4397 4.95743 70.4397 6.12772C70.4397 7.29801 70.1579 8.30937 69.5945 9.16179C69.031 9.9998 68.2291 10.6427 67.1889 11.0906C66.1631 11.5385 64.9422 11.7624 63.5263 11.7624H59.0619L61.3375 9.66025V15.5767H56.2229ZM65.3034 15.5767L61.5759 10.0503H66.9938L70.7648 15.5767H65.3034ZM61.3375 10.2237L59.0619 7.90482H63.2012C63.9092 7.90482 64.4294 7.7459 64.7616 7.42804C65.1084 7.11018 65.2818 6.67674 65.2818 6.12772C65.2818 5.5787 65.1084 5.14526 64.7616 4.8274C64.4294 4.50954 63.9092 4.35062 63.2012 4.35062H59.0619L61.3375 2.03172V10.2237ZM80.8664 15.9234C79.6528 15.9234 78.5259 15.7356 77.4856 15.36C76.4598 14.9699 75.564 14.4209 74.7983 13.7129C74.047 13.0049 73.4618 12.167 73.0429 11.199C72.6239 10.2309 72.4144 9.16179 72.4144 7.99151C72.4144 6.82122 72.6239 5.75207 73.0429 4.78406C73.4618 3.81604 74.047 2.97806 74.7983 2.27011C75.564 1.56216 76.4598 1.02036 77.4856 0.644714C78.5259 0.254618 79.6528 0.0595703 80.8664 0.0595703C82.3546 0.0595703 83.6693 0.319634 84.8111 0.839761C85.9666 1.35989 86.9199 2.11119 87.6716 3.09364L84.4423 5.97602C83.9944 5.41254 83.4959 4.97911 82.9469 4.6757C82.4123 4.35784 81.8055 4.19892 81.1265 4.19892C80.5919 4.19892 80.1079 4.2856 79.6745 4.45898C79.241 4.63235 78.8654 4.8852 78.5475 5.2175C78.2441 5.5498 78.0057 5.95434 77.8324 6.43113C77.659 6.89346 77.5723 7.41359 77.5723 7.99151C77.5723 8.56946 77.659 9.09678 77.8324 9.57356C78.0057 10.0359 78.2441 10.4332 78.5475 10.7655C78.8654 11.0978 79.241 11.3507 79.6745 11.524C80.1079 11.6974 80.5919 11.7841 81.1265 11.7841C81.8055 11.7841 82.4123 11.6324 82.9469 11.329C83.4959 11.0111 83.9944 10.5705 84.4423 10.007L87.6716 12.8894C86.9199 13.8574 85.9666 14.6087 84.8111 15.1433C83.6693 15.6634 82.3546 15.9234 80.8664 15.9234Z" fill="#FAFAFA"/>
</g>
<defs>
<clipPath id="clip0_137_5337">
<rect width="87.7037" height="16" fill="white"/>
</clipPath>
</defs>
</svg>
