<svg width="301" height="302" viewBox="0 0 301 302" fill="none" xmlns="http://www.w3.org/2000/svg">
<path d="M300.941 151.408C300.941 171.164 297.05 190.727 289.49 208.979C281.929 227.232 270.848 243.816 256.878 257.786C242.908 271.756 226.324 282.837 208.071 290.397C189.819 297.958 170.256 301.849 150.5 301.849L150.5 229.618C160.771 229.618 170.941 227.595 180.43 223.665C189.919 219.734 198.541 213.973 205.803 206.711C213.066 199.448 218.826 190.826 222.757 181.338C226.687 171.849 228.71 161.679 228.71 151.408H300.941Z" fill="url(#paint0_linear_239_3705)"/>
<mask id="path-2-inside-1_239_3705" fill="white">
<path d="M150.5 301.849C127.424 301.849 104.658 296.541 83.9618 286.334C63.2657 276.128 45.1949 261.298 31.1472 242.991C17.0996 224.683 7.45163 203.39 2.94976 180.757C-1.5521 158.125 -0.787219 134.76 5.18524 112.471L74.955 131.166C71.8501 142.753 71.4524 154.9 73.7928 166.666C76.1332 178.432 81.1489 189.502 88.4519 199.019C95.7549 208.537 105.149 216.246 115.909 221.552C126.668 226.858 138.504 229.618 150.5 229.618V301.849Z"/>
</mask>
<path d="M150.5 301.849C127.424 301.849 104.658 296.541 83.9618 286.334C63.2657 276.128 45.1949 261.298 31.1472 242.991C17.0996 224.683 7.45163 203.39 2.94976 180.757C-1.5521 158.125 -0.787219 134.76 5.18524 112.471L74.955 131.166C71.8501 142.753 71.4524 154.9 73.7928 166.666C76.1332 178.432 81.1489 189.502 88.4519 199.019C95.7549 208.537 105.149 216.246 115.909 221.552C126.668 226.858 138.504 229.618 150.5 229.618V301.849Z" fill="url(#paint1_linear_239_3705)"/>
<path d="M150.5 301.849C127.424 301.849 104.658 296.541 83.9618 286.334C63.2657 276.128 45.1949 261.298 31.1472 242.991C17.0996 224.683 7.45163 203.39 2.94976 180.757C-1.5521 158.125 -0.787219 134.76 5.18524 112.471L74.955 131.166C71.8501 142.753 71.4524 154.9 73.7928 166.666C76.1332 178.432 81.1489 189.502 88.4519 199.019C95.7549 208.537 105.149 216.246 115.909 221.552C126.668 226.858 138.504 229.618 150.5 229.618V301.849Z" stroke="url(#paint2_radial_239_3705)" stroke-width="2" mask="url(#path-2-inside-1_239_3705)"/>
<path d="M150.5 301.849C127.424 301.849 104.658 296.541 83.9618 286.334C63.2657 276.128 45.1949 261.298 31.1472 242.991C17.0996 224.683 7.45163 203.39 2.94976 180.757C-1.5521 158.125 -0.787219 134.76 5.18524 112.471L74.955 131.166C71.8501 142.753 71.4524 154.9 73.7928 166.666C76.1332 178.432 81.1489 189.502 88.4519 199.019C95.7549 208.537 105.149 216.246 115.909 221.552C126.668 226.858 138.504 229.618 150.5 229.618V301.849Z" stroke="url(#paint3_radial_239_3705)" stroke-width="2" mask="url(#path-2-inside-1_239_3705)"/>
<path d="M150.5 301.849C127.424 301.849 104.658 296.541 83.9618 286.334C63.2657 276.128 45.1949 261.298 31.1472 242.991C17.0996 224.683 7.45163 203.39 2.94976 180.757C-1.5521 158.125 -0.787219 134.76 5.18524 112.471L74.955 131.166C71.8501 142.753 71.4524 154.9 73.7928 166.666C76.1332 178.432 81.1489 189.502 88.4519 199.019C95.7549 208.537 105.149 216.246 115.909 221.552C126.668 226.858 138.504 229.618 150.5 229.618V301.849Z" stroke="url(#paint4_radial_239_3705)" stroke-width="2" mask="url(#path-2-inside-1_239_3705)"/>
<path d="M5.18507 112.471C14.6985 76.9665 36.881 46.1734 67.5448 25.9051C98.2086 5.63689 135.232 -2.70396 171.624 2.45731C208.017 7.61859 241.261 25.9248 265.08 53.9199C288.899 81.915 301.645 117.662 300.911 154.411L228.695 152.969C229.076 133.864 222.45 115.28 210.067 100.727C197.684 86.1728 180.402 76.6559 161.482 73.9727C142.562 71.2895 123.315 75.6256 107.374 86.1625C91.4327 96.6994 79.9006 112.708 74.9548 131.166L5.18507 112.471Z" fill="url(#paint5_linear_239_3705)"/>
<defs>
<linearGradient id="paint0_linear_239_3705" x1="178" y1="168.551" x2="268.714" y2="259.979" gradientUnits="userSpaceOnUse">
<stop stop-color="#16A34A"/>
<stop offset="1" stop-color="#0B5225"/>
</linearGradient>
<linearGradient id="paint1_linear_239_3705" x1="86.5715" y1="196.051" x2="34.4287" y2="244.265" gradientUnits="userSpaceOnUse">
<stop stop-color="#6D28D9"/>
<stop offset="1" stop-color="#3A1573"/>
</linearGradient>
<radialGradient id="paint2_radial_239_3705" cx="0" cy="0" r="1" gradientUnits="userSpaceOnUse" gradientTransform="translate(-160.148 31.7477) rotate(35.1112) scale(346.883 204.915)">
<stop stop-color="white"/>
<stop offset="1" stop-color="white" stop-opacity="0.06"/>
</radialGradient>
<radialGradient id="paint3_radial_239_3705" cx="0" cy="0" r="1" gradientUnits="userSpaceOnUse" gradientTransform="translate(389.028 202.335) rotate(161.34) scale(251.465 170.317)">
<stop stop-color="#8470FF"/>
<stop offset="1" stop-color="#865CFF" stop-opacity="0"/>
</radialGradient>
<radialGradient id="paint4_radial_239_3705" cx="0" cy="0" r="1" gradientUnits="userSpaceOnUse" gradientTransform="translate(153.776 -67.7989) rotate(47.2897) scale(168.141 120.829)">
<stop/>
<stop offset="1" stop-color="white" stop-opacity="0"/>
</radialGradient>
<linearGradient id="paint5_linear_239_3705" x1="163.714" y1="111.765" x2="142.273" y2="14.3633" gradientUnits="userSpaceOnUse">
<stop stop-color="#2563EB"/>
<stop offset="1" stop-color="#123073"/>
</linearGradient>
</defs>
</svg>
