<svg width="32" height="32" viewBox="0 0 32 32" fill="none" xmlns="http://www.w3.org/2000/svg">
<g opacity="0.8">
<path d="M28 23.5C28 23.7761 27.7761 24 27.5 24H4.5C4.22386 24 4 23.7761 4 23.5V21.8333C4 21.5572 4.22386 21.3333 4.5 21.3333H27.5C27.7761 21.3333 28 21.5572 28 21.8333V23.5ZM28 16.8333C28 17.1095 27.7761 17.3333 27.5 17.3333H4.5C4.22386 17.3333 4 17.1095 4 16.8333V15.1667C4 14.8905 4.22386 14.6667 4.5 14.6667H27.5C27.7761 14.6667 28 14.8905 28 15.1667V16.8333ZM28 10.1667C28 10.4428 27.7761 10.6667 27.5 10.6667H4.5C4.22386 10.6667 4 10.4428 4 10.1667V8.5C4 8.22386 4.22386 8 4.5 8H27.5C27.7761 8 28 8.22386 28 8.5V10.1667Z" fill="#FAFAFA"/>
</g>
</svg>
