<svg width="16" height="16" viewBox="0 0 16 16" fill="none" xmlns="http://www.w3.org/2000/svg">
<path fill-rule="evenodd" clip-rule="evenodd" d="M16.0005 8C16.0005 12.4183 12.4188 16 8.00049 16C3.58221 16 0.000488281 12.4183 0.000488281 8C0.000488281 3.58172 3.58221 0 8.00049 0C12.4188 0 16.0005 3.58172 16.0005 8ZM8.28717 5.90595C7.50905 6.2296 5.95391 6.89946 3.62175 7.91555C3.24304 8.06615 3.04466 8.21348 3.0266 8.35754C2.99608 8.601 3.30096 8.69687 3.71613 8.82741C3.77261 8.84517 3.83112 8.86357 3.89111 8.88307C4.29958 9.01585 4.84904 9.17118 5.13468 9.17735C5.39378 9.18295 5.68297 9.07613 6.00225 8.85689C8.18126 7.386 9.30608 6.64254 9.3767 6.62651C9.42652 6.6152 9.49555 6.60099 9.54233 6.64256C9.58911 6.68414 9.58451 6.76288 9.57956 6.784C9.54935 6.91276 8.35257 8.0254 7.73324 8.60119C7.54016 8.78069 7.4032 8.90801 7.37521 8.93709C7.31249 9.00223 7.24857 9.06385 7.18714 9.12307C6.80767 9.48889 6.5231 9.76321 7.2029 10.2112C7.52958 10.4265 7.791 10.6045 8.05179 10.7821C8.33661 10.9761 8.62068 11.1695 8.98823 11.4104C9.08187 11.4718 9.17131 11.5356 9.25842 11.5977C9.58987 11.834 9.88766 12.0463 10.2555 12.0124C10.4693 11.9928 10.6901 11.7917 10.8023 11.1922C11.0673 9.77543 11.5882 6.70564 11.7086 5.44065C11.7192 5.32982 11.7059 5.18798 11.6953 5.12572C11.6846 5.06345 11.6623 4.97474 11.5814 4.90907C11.4855 4.83129 11.3376 4.81489 11.2714 4.81606C10.9705 4.82136 10.5089 4.98188 8.28717 5.90595Z" fill="#525252"/>
</svg>
