<svg width="21" height="16" viewBox="0 0 21 16" fill="none" xmlns="http://www.w3.org/2000/svg">
<path d="M17.7899 1.32631C16.4563 0.71242 15.0263 0.260131 13.5311 0.00108666C13.5039 -0.00391282 13.4767 0.00858115 13.4626 0.0335697C13.2787 0.361747 13.075 0.789881 12.9323 1.12639C11.3241 0.884845 9.72421 0.884845 8.14899 1.12639C8.0063 0.782401 7.79519 0.361747 7.61045 0.0335697C7.59642 0.00941489 7.56922 -0.00307908 7.54199 0.00108666C6.04761 0.259303 4.61756 0.711592 3.28317 1.32631C3.27162 1.33131 3.26172 1.33965 3.25515 1.35047C0.542645 5.4161 -0.200422 9.3818 0.164101 13.2983C0.165751 13.3175 0.176472 13.3358 0.191317 13.3475C1.98095 14.666 3.71451 15.4665 5.41588 15.9971C5.44311 16.0054 5.47196 15.9954 5.48929 15.9729C5.89175 15.4215 6.2505 14.8401 6.5581 14.2287C6.57626 14.1929 6.55893 14.1504 6.52183 14.1363C5.95278 13.9197 5.41093 13.6557 4.88971 13.3558C4.84848 13.3317 4.84518 13.2725 4.88311 13.2442C4.99279 13.1617 5.10251 13.0759 5.20724 12.9893C5.22619 12.9735 5.25259 12.9701 5.27487 12.9801C8.69906 14.5486 12.4062 14.5486 15.79 12.9801C15.8122 12.9693 15.8386 12.9726 15.8584 12.9885C15.9632 13.0751 16.0729 13.1617 16.1834 13.2442C16.2213 13.2725 16.2188 13.3317 16.1776 13.3558C15.6564 13.6615 15.1145 13.9197 14.5446 14.1354C14.5075 14.1496 14.491 14.1929 14.5092 14.2287C14.8234 14.8393 15.1822 15.4207 15.5772 15.9721C15.5937 15.9954 15.6234 16.0054 15.6506 15.9971C17.3602 15.4665 19.0938 14.666 20.8834 13.3475C20.8991 13.3358 20.909 13.3183 20.9106 13.2992C21.3469 8.77122 20.1799 4.83804 17.8171 1.3513C17.8113 1.33965 17.8015 1.33131 17.7899 1.32631ZM7.06945 10.9136C6.03853 10.9136 5.18909 9.96403 5.18909 8.79789C5.18909 7.63175 6.02206 6.6822 7.06945 6.6822C8.12506 6.6822 8.96629 7.64009 8.94979 8.79789C8.94979 9.96403 8.11681 10.9136 7.06945 10.9136ZM14.0218 10.9136C12.9909 10.9136 12.1414 9.96403 12.1414 8.79789C12.1414 7.63175 12.9744 6.6822 14.0218 6.6822C15.0774 6.6822 15.9186 7.64009 15.9021 8.79789C15.9021 9.96403 15.0774 10.9136 14.0218 10.9136Z" fill="#525252"/>
</svg>
