<svg width="19" height="16" viewBox="0 0 19 16" fill="none" xmlns="http://www.w3.org/2000/svg">
<g opacity="0.8">
<path d="M18.8143 12.6148L15.7069 15.7814C15.64 15.8509 15.5586 15.9063 15.468 15.9439C15.3774 15.9815 15.2795 16.0006 15.1808 16H0.450466C0.380253 15.9996 0.311627 15.98 0.25277 15.9433C0.193912 15.9067 0.147306 15.8546 0.118507 15.7933C0.0902482 15.7322 0.0816094 15.6644 0.0936878 15.5985C0.106025 15.5323 0.13789 15.4709 0.185519 15.4215L3.28918 12.2549C3.3561 12.1854 3.43749 12.13 3.52811 12.0924C3.61873 12.0547 3.71657 12.0357 3.81535 12.0364H18.5457C18.6163 12.0346 18.6858 12.0528 18.7455 12.0889C18.8053 12.125 18.8524 12.1773 18.881 12.2391C18.9096 12.3009 18.9184 12.3695 18.9062 12.4361C18.8939 12.5027 18.8613 12.5643 18.8125 12.6131L18.8143 12.6148ZM15.7063 6.23651C15.6382 6.16838 15.5566 6.11396 15.4663 6.07643C15.3759 6.0389 15.2786 6.01902 15.1801 6.01796H0.450466C0.380185 6.01836 0.311511 6.03812 0.252646 6.07487C0.193781 6.11163 0.147214 6.16382 0.118507 6.22522C0.0902846 6.28638 0.0816472 6.35417 0.0936878 6.42002C0.106097 6.48653 0.137742 6.54652 0.185519 6.5964L3.28918 9.76478C3.35557 9.83308 3.4381 9.88831 3.52745 9.92513C3.61866 9.96314 3.71546 9.98155 3.81535 9.98333H18.5457C18.6155 9.98349 18.6839 9.96398 18.7422 9.92723C18.8006 9.89049 18.8464 9.83812 18.8739 9.77666C18.9022 9.71556 18.9109 9.64779 18.899 9.58193C18.8871 9.51608 18.855 9.45508 18.8069 9.40667L15.7045 6.23829L15.7063 6.23651ZM0.449846 3.96193H15.1801C15.2791 3.96143 15.377 3.94204 15.468 3.90491C15.5593 3.8669 15.6399 3.81346 15.7063 3.74338L18.8149 0.57678C18.8508 0.540098 18.8778 0.496338 18.8941 0.448579C18.9104 0.40082 18.9156 0.350223 18.9093 0.300347C18.903 0.250471 18.8853 0.202528 18.8575 0.159893C18.8297 0.117257 18.7926 0.0809636 18.7486 0.0535666C18.6888 0.0169545 18.619 -0.00166505 18.5481 0.000116938H3.81535C3.71732 0.000116938 3.61866 0.020309 3.52745 0.0565361C3.43697 0.093893 3.35577 0.149146 3.28918 0.218667L0.185519 3.38526C0.13804 3.4343 0.106438 3.49547 0.0945444 3.56135C0.0826503 3.62723 0.0909741 3.695 0.118507 3.75644C0.147262 3.81764 0.193772 3.86965 0.252509 3.90629C0.311246 3.94293 0.379739 3.96265 0.449846 3.96311V3.96193Z" fill="url(#paint0_linear_137_5259)"/>
</g>
<defs>
<linearGradient id="paint0_linear_137_5259" x1="1.67778" y1="16.3813" x2="16.2504" y2="-0.904273" gradientUnits="userSpaceOnUse">
<stop offset="0.08" stop-color="#9945FF"/>
<stop offset="0.3" stop-color="#8752F3"/>
<stop offset="0.5" stop-color="#5497D5"/>
<stop offset="0.6" stop-color="#43B4CA"/>
<stop offset="0.72" stop-color="#28E0B9"/>
<stop offset="0.97" stop-color="#19FB9B"/>
</linearGradient>
</defs>
</svg>
