<svg width="67" height="73" viewBox="0 0 67 73" fill="none" xmlns="http://www.w3.org/2000/svg">
<g filter="url(#filter0_b_137_5281)">
<path d="M1.75 40.9163C1.75 23.2894 16.1231 9 33.75 9C51.3769 9 65.75 23.2894 65.75 40.9163C65.75 58.5432 51.3769 72.8326 33.75 72.8326C16.1231 72.8326 1.75 58.5432 1.75 40.9163Z" fill="url(#paint0_radial_137_5281)"/>
<path d="M2.25 40.9163C2.25 23.5673 16.3975 9.5 33.75 9.5C51.1025 9.5 65.25 23.5673 65.25 40.9163C65.25 58.2654 51.1025 72.3326 33.75 72.3326C16.3975 72.3326 2.25 58.2654 2.25 40.9163Z" stroke="url(#paint1_radial_137_5281)"/>
<path d="M2.25 40.9163C2.25 23.5673 16.3975 9.5 33.75 9.5C51.1025 9.5 65.25 23.5673 65.25 40.9163C65.25 58.2654 51.1025 72.3326 33.75 72.3326C16.3975 72.3326 2.25 58.2654 2.25 40.9163Z" stroke="url(#paint2_radial_137_5281)"/>
<path d="M2.25 40.9163C2.25 23.5673 16.3975 9.5 33.75 9.5C51.1025 9.5 65.25 23.5673 65.25 40.9163C65.25 58.2654 51.1025 72.3326 33.75 72.3326C16.3975 72.3326 2.25 58.2654 2.25 40.9163Z" stroke="url(#paint3_radial_137_5281)"/>
</g>
<g filter="url(#filter1_f_137_5281)">
<ellipse cx="33.545" cy="26.1858" rx="20.3077" ry="13.0939" fill="url(#paint4_radial_137_5281)" fill-opacity="0.2"/>
</g>
<path d="M29.7676 31.0445C29.2395 31.0445 28.7331 31.2542 28.3597 31.6276C27.9863 32.001 27.7765 32.5075 27.7765 33.0356C27.7765 33.5636 27.9863 34.0701 28.3597 34.4435C28.7331 34.8169 29.2395 35.0267 29.7676 35.0267H40.89L38.3155 37.6012C37.9528 37.9767 37.7521 38.4797 37.7566 39.0017C37.7611 39.5238 37.9705 40.0232 38.3397 40.3924C38.7089 40.7615 39.2083 40.9709 39.7303 40.9755C40.2524 40.98 40.7554 40.7793 41.1309 40.4166L47.1042 34.4433C47.4775 34.0699 47.6872 33.5635 47.6872 33.0356C47.6872 32.5076 47.4775 32.0012 47.1042 31.6279L41.1309 25.6545C40.9472 25.4644 40.7275 25.3127 40.4846 25.2083C40.2417 25.104 39.9804 25.049 39.716 25.0467C39.4516 25.0444 39.1894 25.0948 38.9447 25.1949C38.7 25.295 38.4777 25.4429 38.2908 25.6298C38.1038 25.8168 37.956 26.0391 37.8559 26.2838C37.7558 26.5285 37.7054 26.7907 37.7077 27.0551C37.71 27.3195 37.7649 27.5807 37.8692 27.8236C37.9736 28.0666 38.1253 28.2863 38.3155 28.47L40.89 31.0445H29.7676Z" fill="url(#paint5_linear_137_5281)"/>
<path d="M37.7321 50.9556C38.2601 50.9556 38.7666 50.7458 39.14 50.3724C39.5134 49.999 39.7232 49.4925 39.7232 48.9645C39.7232 48.4364 39.5134 47.9299 39.14 47.5565C38.7666 47.1831 38.2601 46.9733 37.7321 46.9733H26.6097L29.1842 44.3988C29.3744 44.2152 29.5261 43.9955 29.6304 43.7525C29.7348 43.5096 29.7897 43.2483 29.792 42.984C29.7943 42.7196 29.7439 42.4574 29.6438 42.2127C29.5437 41.968 29.3959 41.7457 29.2089 41.5587C29.022 41.3718 28.7997 41.2239 28.555 41.1238C28.3103 41.0237 28.0481 40.9733 27.7837 40.9756C27.5193 40.9779 27.258 41.0328 27.0151 41.1372C26.7722 41.2416 26.5525 41.3932 26.3688 41.5834L20.3955 47.5567C20.0222 47.9301 19.8125 48.4365 19.8125 48.9645C19.8125 49.4924 20.0222 49.9988 20.3955 50.3722L26.3688 56.3455C26.7443 56.7082 27.2473 56.9089 27.7694 56.9044C28.2914 56.8998 28.7908 56.6904 29.16 56.3213C29.5291 55.9521 29.7386 55.4527 29.7431 54.9306C29.7476 54.4086 29.5469 53.9056 29.1842 53.5301L26.6097 50.9556H37.7321Z" fill="url(#paint6_linear_137_5281)"/>
<defs>
<filter id="filter0_b_137_5281" x="-3.25" y="4" width="74" height="73.8326" filterUnits="userSpaceOnUse" color-interpolation-filters="sRGB">
<feFlood flood-opacity="0" result="BackgroundImageFix"/>
<feGaussianBlur in="BackgroundImageFix" stdDeviation="2.5"/>
<feComposite in2="SourceAlpha" operator="in" result="effect1_backgroundBlur_137_5281"/>
<feBlend mode="normal" in="SourceGraphic" in2="effect1_backgroundBlur_137_5281" result="shape"/>
</filter>
<filter id="filter1_f_137_5281" x="0.28277" y="0.137354" width="66.5243" height="52.0968" filterUnits="userSpaceOnUse" color-interpolation-filters="sRGB">
<feFlood flood-opacity="0" result="BackgroundImageFix"/>
<feBlend mode="normal" in="SourceGraphic" in2="BackgroundImageFix" result="shape"/>
<feGaussianBlur stdDeviation="6.47727" result="effect1_foregroundBlur_137_5281"/>
</filter>
<radialGradient id="paint0_radial_137_5281" cx="0" cy="0" r="1" gradientUnits="userSpaceOnUse" gradientTransform="translate(7.10363 9) rotate(47.9449) scale(95.5445 69.4201)">
<stop stop-color="white" stop-opacity="0.36"/>
<stop offset="1" stop-color="white" stop-opacity="0"/>
</radialGradient>
<radialGradient id="paint1_radial_137_5281" cx="0" cy="0" r="1" gradientUnits="userSpaceOnUse" gradientTransform="translate(-32.3272 15.5302) rotate(35.0407) scale(73.7209 43.5106)">
<stop stop-color="white"/>
<stop offset="1" stop-color="white" stop-opacity="0.06"/>
</radialGradient>
<radialGradient id="paint2_radial_137_5281" cx="0" cy="0" r="1" gradientUnits="userSpaceOnUse" gradientTransform="translate(84.4868 51.7206) rotate(161.385) scale(53.4742 36.1427)">
<stop stop-color="#8470FF"/>
<stop offset="1" stop-color="#865CFF" stop-opacity="0"/>
</radialGradient>
<radialGradient id="paint3_radial_137_5281" cx="0" cy="0" r="1" gradientUnits="userSpaceOnUse" gradientTransform="translate(34.4468 -5.58874) rotate(47.2149) scale(35.7144 25.6703)">
<stop/>
<stop offset="1" stop-color="white" stop-opacity="0"/>
</radialGradient>
<radialGradient id="paint4_radial_137_5281" cx="0" cy="0" r="1" gradientUnits="userSpaceOnUse" gradientTransform="translate(33.545 13.0919) rotate(90) scale(19.4053 30.1)">
<stop stop-color="white"/>
<stop offset="1" stop-color="white" stop-opacity="0"/>
</radialGradient>
<linearGradient id="paint5_linear_137_5281" x1="24.8938" y1="72.5015" x2="66.3299" y2="44.2698" gradientUnits="userSpaceOnUse">
<stop stop-color="#982DEC"/>
<stop offset="0.572917" stop-color="#DC8DF8"/>
<stop offset="0.895833" stop-color="#A9C4F3"/>
</linearGradient>
<linearGradient id="paint6_linear_137_5281" x1="24.8938" y1="72.5015" x2="66.3299" y2="44.2698" gradientUnits="userSpaceOnUse">
<stop stop-color="#982DEC"/>
<stop offset="0.572917" stop-color="#DC8DF8"/>
<stop offset="0.895833" stop-color="#A9C4F3"/>
</linearGradient>
</defs>
</svg>
