<svg width="482" height="238" viewBox="0 0 482 238" fill="none" xmlns="http://www.w3.org/2000/svg">
<path d="M0.403228 233.756C2.27039 171.745 28.0082 112.849 72.2475 69.3553C116.487 25.8614 175.811 1.12805 237.845 0.314871C299.878 -0.498344 359.831 22.6714 405.195 64.9907C450.559 107.31 477.832 165.51 481.324 227.451L365.938 233.956C364.122 201.755 349.944 171.498 326.36 149.498C302.777 127.497 271.609 115.452 239.36 115.874C207.11 116.297 176.269 129.155 153.27 151.767C130.271 174.378 116.891 204.996 115.92 237.234L0.403228 233.756Z" fill="url(#paint0_linear_366_2026)"/>
<defs>
<linearGradient id="paint0_linear_366_2026" x1="262.143" y1="177.571" x2="227.836" y2="21.7285" gradientUnits="userSpaceOnUse">
<stop stop-color="#2563EB"/>
<stop offset="1" stop-color="#123073"/>
</linearGradient>
</defs>
</svg>
