<svg width="25" height="25" viewBox="0 0 25 25" fill="none" xmlns="http://www.w3.org/2000/svg">
<path d="M14.5002 22.1511H4.50019C3.96427 22.1697 3.44467 21.965 3.06548 21.5858C2.6863 21.2066 2.48157 20.687 2.50019 20.1511V10.1511C2.48157 9.61515 2.6863 9.09554 3.06548 8.71636C3.44467 8.33717 3.96427 8.13245 4.50019 8.15107H8.50019V4.15107C8.48157 3.61515 8.6863 3.09554 9.06548 2.71636C9.44467 2.33717 9.96427 2.13245 10.5002 2.15107H20.5002C21.0361 2.13245 21.5557 2.33717 21.9349 2.71636C22.3141 3.09554 22.5188 3.61515 22.5002 4.15107V14.1511C22.5185 14.6869 22.3137 15.2063 21.9346 15.5855C21.5555 15.9646 21.036 16.1694 20.5002 16.1511H16.5002V20.1511C16.5185 20.6869 16.3137 21.2063 15.9346 21.5855C15.5555 21.9646 15.036 22.1694 14.5002 22.1511ZM4.50019 10.1511V20.1511H14.5002V16.1511H10.5002C9.96435 16.1694 9.44493 15.9646 9.06581 15.5855C8.68669 15.2063 8.48187 14.6869 8.50019 14.1511V10.1511H4.50019ZM10.5002 4.15107V14.1511H20.5002V4.15107H10.5002Z" fill="#A3A3A3"/>
</svg>
