<svg width="56" height="42" viewBox="0 0 56 42" fill="none" xmlns="http://www.w3.org/2000/svg">
<path d="M46.9037 3.48157C43.3916 1.8701 39.6255 0.682845 35.6878 0.00285248C35.6161 -0.0102712 35.5445 0.0225255 35.5075 0.0881204C35.0232 0.949586 34.4867 2.07344 34.111 2.95678C29.8757 2.32272 25.6622 2.32272 21.5137 2.95678C21.138 2.0538 20.582 0.949586 20.0954 0.0881204C20.0585 0.0247141 19.9869 -0.00808259 19.9151 0.00285248C15.9796 0.680672 12.2135 1.86793 8.69929 3.48157C8.66887 3.49469 8.64279 3.51657 8.62549 3.54498C1.48195 14.2173 -0.474962 24.6272 0.485034 34.9081C0.489378 34.9584 0.517613 35.0065 0.556708 35.0371C5.26981 38.4983 9.83525 40.5996 14.3159 41.9923C14.3876 42.0142 14.4636 41.988 14.5092 41.9289C15.5691 40.4815 16.5139 38.9554 17.324 37.3504C17.3718 37.2564 17.3262 37.1449 17.2285 37.1077C15.7299 36.5392 14.3029 35.8461 12.9302 35.059C12.8216 34.9956 12.8129 34.8403 12.9128 34.766C13.2017 34.5495 13.4906 34.3243 13.7664 34.0969C13.8163 34.0554 13.8859 34.0466 13.9446 34.0728C22.9624 38.1901 32.7252 38.1901 41.6367 34.0728C41.6953 34.0444 41.7649 34.0532 41.817 34.0947C42.0929 34.3221 42.3817 34.5495 42.6727 34.766C42.7726 34.8403 42.7661 34.9956 42.6575 35.059C41.2849 35.8614 39.8579 36.5392 38.3571 37.1056C38.2594 37.1427 38.2159 37.2564 38.2637 37.3504C39.0912 38.9531 40.036 40.4793 41.0763 41.9268C41.1198 41.988 41.1979 42.0142 41.2697 41.9923C45.772 40.5996 50.3375 38.4983 55.0506 35.0371C55.0918 35.0065 55.1179 34.9606 55.1223 34.9103C56.2712 23.0245 53.1979 12.6999 46.9753 3.54715C46.9601 3.51657 46.9341 3.49469 46.9037 3.48157ZM18.6707 28.6481C15.9557 28.6481 13.7186 26.1556 13.7186 23.0945C13.7186 20.0333 15.9123 17.5408 18.6707 17.5408C21.4507 17.5408 23.6661 20.0552 23.6227 23.0945C23.6227 26.1556 21.429 28.6481 18.6707 28.6481ZM36.9801 28.6481C34.2652 28.6481 32.0281 26.1556 32.0281 23.0945C32.0281 20.0333 34.2217 17.5408 36.9801 17.5408C39.7602 17.5408 41.9755 20.0552 41.9321 23.0945C41.9321 26.1556 39.7602 28.6481 36.9801 28.6481Z" fill="white"/>
</svg>
