<svg width="478" height="249" viewBox="0 0 478 249" fill="none" xmlns="http://www.w3.org/2000/svg">
<mask id="path-1-inside-1_366_2025" fill="white">
<path d="M477.819 51.0806C466.946 110.853 433.872 164.303 385.233 200.707C336.594 237.111 275.989 253.776 215.575 247.359C155.162 240.942 99.4091 211.917 59.5031 166.108C19.5971 120.298 -1.51034 61.093 0.415385 0.370087L115.927 4.03333C114.926 35.6015 125.899 66.3806 146.645 90.1956C167.391 114.011 196.375 129.1 227.782 132.436C259.19 135.772 290.697 127.108 315.983 108.183C341.269 89.2575 358.463 61.4703 364.116 30.3963L477.819 51.0806Z"/>
</mask>
<path d="M477.819 51.0806C466.946 110.853 433.872 164.303 385.233 200.707C336.594 237.111 275.989 253.776 215.575 247.359C155.162 240.942 99.4091 211.917 59.5031 166.108C19.5971 120.298 -1.51034 61.093 0.415385 0.370087L115.927 4.03333C114.926 35.6015 125.899 66.3806 146.645 90.1956C167.391 114.011 196.375 129.1 227.782 132.436C259.19 135.772 290.697 127.108 315.983 108.183C341.269 89.2575 358.463 61.4703 364.116 30.3963L477.819 51.0806Z" fill="url(#paint0_linear_366_2025)"/>
<path d="M477.819 51.0806C466.946 110.853 433.872 164.303 385.233 200.707C336.594 237.111 275.989 253.776 215.575 247.359C155.162 240.942 99.4091 211.917 59.5031 166.108C19.5971 120.298 -1.51034 61.093 0.415385 0.370087L115.927 4.03333C114.926 35.6015 125.899 66.3806 146.645 90.1956C167.391 114.011 196.375 129.1 227.782 132.436C259.19 135.772 290.697 127.108 315.983 108.183C341.269 89.2575 358.463 61.4703 364.116 30.3963L477.819 51.0806Z" stroke="url(#paint1_radial_366_2025)" stroke-width="2" mask="url(#path-1-inside-1_366_2025)"/>
<path d="M477.819 51.0806C466.946 110.853 433.872 164.303 385.233 200.707C336.594 237.111 275.989 253.776 215.575 247.359C155.162 240.942 99.4091 211.917 59.5031 166.108C19.5971 120.298 -1.51034 61.093 0.415385 0.370087L115.927 4.03333C114.926 35.6015 125.899 66.3806 146.645 90.1956C167.391 114.011 196.375 129.1 227.782 132.436C259.19 135.772 290.697 127.108 315.983 108.183C341.269 89.2575 358.463 61.4703 364.116 30.3963L477.819 51.0806Z" stroke="url(#paint2_radial_366_2025)" stroke-width="2" mask="url(#path-1-inside-1_366_2025)"/>
<path d="M477.819 51.0806C466.946 110.853 433.872 164.303 385.233 200.707C336.594 237.111 275.989 253.776 215.575 247.359C155.162 240.942 99.4091 211.917 59.5031 166.108C19.5971 120.298 -1.51034 61.093 0.415385 0.370087L115.927 4.03333C114.926 35.6015 125.899 66.3806 146.645 90.1956C167.391 114.011 196.375 129.1 227.782 132.436C259.19 135.772 290.697 127.108 315.983 108.183C341.269 89.2575 358.463 61.4703 364.116 30.3963L477.819 51.0806Z" stroke="url(#paint3_radial_366_2025)" stroke-width="2" mask="url(#path-1-inside-1_366_2025)"/>
<defs>
<linearGradient id="paint0_linear_366_2025" x1="138.714" y1="79.4286" x2="55.2858" y2="156.571" gradientUnits="userSpaceOnUse">
<stop stop-color="#6D28D9"/>
<stop offset="1" stop-color="#3A1573"/>
</linearGradient>
<radialGradient id="paint1_radial_366_2025" cx="0" cy="0" r="1" gradientUnits="userSpaceOnUse" gradientTransform="translate(-256.036 -183.456) rotate(35.1112) scale(555.013 327.863)">
<stop stop-color="white"/>
<stop offset="1" stop-color="white" stop-opacity="0.06"/>
</radialGradient>
<radialGradient id="paint2_radial_366_2025" cx="0" cy="0" r="1" gradientUnits="userSpaceOnUse" gradientTransform="translate(622.645 89.4832) rotate(161.34) scale(402.344 272.508)">
<stop stop-color="#8470FF"/>
<stop offset="1" stop-color="#865CFF" stop-opacity="0"/>
</radialGradient>
<radialGradient id="paint3_radial_366_2025" cx="0" cy="0" r="1" gradientUnits="userSpaceOnUse" gradientTransform="translate(246.242 -342.731) rotate(47.2897) scale(269.025 193.326)">
<stop/>
<stop offset="1" stop-color="white" stop-opacity="0"/>
</radialGradient>
</defs>
</svg>
