<svg width="19" height="17" viewBox="0 0 19 17" fill="none" xmlns="http://www.w3.org/2000/svg">
<path d="M18.4066 12.766L15.4324 15.9326C15.3683 16.002 15.2904 16.0574 15.2037 16.095C15.117 16.1327 15.0233 16.1518 14.9288 16.1511H0.829964C0.762761 16.1508 0.697077 16.1311 0.640742 16.0944C0.584408 16.0578 0.539799 16.0057 0.512235 15.9444C0.485188 15.8833 0.476919 15.8155 0.48848 15.7496C0.500288 15.6835 0.530787 15.6221 0.576375 15.5727L3.54699 12.4061C3.61104 12.3365 3.68894 12.2811 3.77567 12.2435C3.86241 12.2059 3.95606 12.1868 4.0506 12.1875H18.1494C18.217 12.1857 18.2836 12.204 18.3408 12.2401C18.3979 12.2762 18.4431 12.3284 18.4704 12.3902C18.4978 12.4521 18.5062 12.5206 18.4945 12.5872C18.4828 12.6538 18.4516 12.7154 18.4048 12.7642L18.4066 12.766ZM15.4318 6.38763C15.3667 6.3195 15.2885 6.26508 15.2021 6.22755C15.1156 6.19002 15.0225 6.17014 14.9282 6.16908H0.829964C0.762696 6.16948 0.696965 6.18924 0.640624 6.226C0.584283 6.26275 0.539712 6.31494 0.512235 6.37635C0.485222 6.4375 0.476955 6.50529 0.48848 6.57114C0.500357 6.63766 0.530646 6.69764 0.576375 6.74753L3.54699 9.9159C3.61054 9.9842 3.68952 10.0394 3.77504 10.0763C3.86234 10.1143 3.95499 10.1327 4.0506 10.1345H18.1494C18.2163 10.1346 18.2817 10.1151 18.3376 10.0784C18.3935 10.0416 18.4373 9.98924 18.4636 9.92778C18.4907 9.86668 18.4991 9.79891 18.4877 9.73306C18.4762 9.6672 18.4456 9.6062 18.3995 9.55779L15.43 6.38941L15.4318 6.38763ZM0.82937 4.11305H14.9282C15.0229 4.11255 15.1166 4.09317 15.2038 4.05604C15.2911 4.01803 15.3683 3.96458 15.4318 3.8945L18.4072 0.727903C18.4415 0.691221 18.4674 0.647461 18.483 0.599702C18.4986 0.551943 18.5035 0.501346 18.4975 0.45147C18.4914 0.401594 18.4745 0.353652 18.4479 0.311016C18.4214 0.26838 18.3858 0.232087 18.3436 0.20469C18.2865 0.168078 18.2197 0.149458 18.1518 0.15124H4.0506C3.95677 0.15124 3.86234 0.171432 3.77504 0.207659C3.68844 0.245016 3.61072 0.300269 3.54699 0.36979L0.576375 3.53639C0.530931 3.58542 0.500684 3.64659 0.4893 3.71247C0.477915 3.77835 0.485882 3.84612 0.512235 3.90757C0.539757 3.96876 0.584274 4.02077 0.640493 4.05741C0.696711 4.09405 0.762268 4.11377 0.82937 4.11424V4.11305Z" fill="#A3A3A3"/>
</svg>
